<svg width="54" height="54" viewBox="0 0 54 54" fill="none" xmlns="http://www.w3.org/2000/svg">
<rect width="54" height="54" rx="27" fill="#0C7DA1" fill-opacity="0.09"/>
<path d="M18.9993 24.3333V21.6666C18.9993 17.2533 20.3327 13.6666 26.9993 13.6666C33.666 13.6666 34.9993 17.2533 34.9993 21.6666V24.3333M33.666 40.3333H20.3327C14.9993 40.3333 13.666 39 13.666 33.6666V31C13.666 25.6666 14.9993 24.3333 20.3327 24.3333H33.666C38.9993 24.3333 40.3327 25.6666 40.3327 31V33.6666C40.3327 39 38.9993 40.3333 33.666 40.3333Z" stroke="#0C7DA1" stroke-width="2" stroke-linecap="round" stroke-linejoin="round"/>
<path d="M32.3282 32.3334H32.3415M26.9935 32.3334H27.0068M21.6602 32.3334H21.6708" stroke="#0C7DA1" stroke-width="2.66667" stroke-linecap="round" stroke-linejoin="round"/>
</svg>
