<svg width="148" height="70" viewBox="0 0 148 70" fill="none" xmlns="http://www.w3.org/2000/svg">
<path d="M4.55235 45.3625L4.33398 45.4124L4.53026 45.3047C4.53676 45.3231 4.54455 45.3428 4.55235 45.3625Z" fill="#014EC4"/>
<path d="M17.67 10.0166C17.3983 10.1204 17.0461 10.2636 16.6302 10.4489L16.5977 10.4278C16.9538 10.282 17.3152 10.1454 17.67 10.0166Z" fill="#014EC4"/>
<path d="M4.55235 45.3625L4.33398 45.4124L4.53026 45.3047C4.53676 45.3231 4.54455 45.3428 4.55235 45.3625Z" fill="#014EC4"/>
<path d="M18.2643 9.80371C18.0706 9.87072 17.8743 9.9351 17.6846 10.0113C17.9848 9.89568 18.1863 9.82473 18.2643 9.80371Z" fill="#014EC4"/>
<path d="M62.1541 40.9635C62.1541 40.9635 64.9707 39.6773 64.4248 32.6993L64.0622 30.6786H63.6072C63.6072 30.6786 63.2446 27.461 59.9769 21.768C59.9769 21.768 57.5241 17.5439 55.616 16.9934C55.616 16.9934 53.9809 16.7175 52.7096 17.268C52.7096 17.268 52.0727 17.452 51.7101 17.268C51.3474 17.0841 49.7084 17.7279 49.5784 18.1404C49.5784 18.1404 48.8505 20.2531 50.7586 20.0692C50.7586 20.0692 52.5784 19.0588 52.7577 18.6922C52.9371 18.3257 52.3938 18.1404 53.3933 17.9578C54.3929 17.7752 55.4821 17.6819 56.2087 18.0498C56.9353 18.4176 60.5696 23.6508 61.3872 27.0484C62.2048 30.4461 61.8408 32.7414 60.5696 33.8424C59.2984 34.9434 55.4821 36.9641 49.3054 32.003C49.3054 32.003 47.2153 30.2595 47.2153 29.3411L47.5897 29.1427L47.6222 29.1256L47.6469 29.1125L47.6716 29.1007L52.3509 26.6319L47.3453 27.8407L46.2678 28.1034C46.2678 28.1034 43.6331 24.5232 44.0867 22.8703C44.5403 21.2175 46.2678 20.9416 46.2678 20.9416C46.2678 20.9416 46.4484 21.4921 47.448 21.2175C48.4476 20.9429 49.4471 20.8496 49.1742 19.6566C48.9012 18.4636 48.3566 18.4623 47.63 18.6463C46.9034 18.8302 46.0858 19.2887 45.9038 19.9312C45.9038 19.9312 43.2691 21.2175 43.1742 22.9623C43.0949 24.5048 44.864 27.6922 45.2708 28.4175C44.3029 28.6925 43.3389 28.9776 42.3787 29.2728C41.1795 25.7782 39.4974 22.4726 37.3823 19.4543C38.6223 18.3901 39.8718 17.2176 41.1309 15.9371C41.1309 15.9371 42.6751 14.0977 42.6751 13.4578C42.6751 12.818 42.8571 11.9889 41.4949 11.5291C40.1873 11.0889 31.5227 5.24091 18.3075 9.79213H18.2959H18.2855H18.2712C18.0775 9.85914 17.8812 9.92352 17.6914 9.99972H17.6758C17.4042 10.1035 17.0519 10.2467 16.636 10.432C12.4545 12.2937 1.76356 18.4991 0.16089 33.7333C-1.84342 52.7581 15.3258 63.8694 26.7719 63.7775C34.8762 63.7118 43.3224 59.941 48.5632 53.4084C49.7568 53.2513 50.9669 53.5249 51.9804 54.181C54.8868 56.0204 56.158 59.3235 60.6099 59.2315C65.0617 59.1395 66.3291 56.1098 66.7866 52.988C67.2441 49.8663 64.4248 44.2653 62.1541 40.9635ZM43.1833 35.7081C42.8427 35.4623 42.4569 35.2881 42.0486 35.1955C41.6403 35.103 41.2177 35.0941 40.806 35.1694C38.2622 35.6279 37.6266 37.7393 37.8996 39.4841C38.1726 41.2289 39.8077 41.5048 39.8077 41.5048L39.7167 41.7808H39.2618C39.2618 41.7808 39.059 42.2209 38.8147 42.933C33.3451 43.7463 26.7758 46.0784 20.2105 51.6518C18.1568 48.8441 16.506 45.6698 15.2504 42.3786C25.8711 38.9901 35.8615 34.6583 41.8705 31.8808C42.3787 33.2117 42.8194 34.498 43.1833 35.7081ZM40.806 42.146C40.5343 42.054 40.6253 41.9621 40.6253 41.9621C40.6253 41.9621 43.1963 42.2314 44.309 39.9348C44.5481 40.9767 44.7249 41.874 44.851 42.5809C43.5068 42.5385 42.1613 42.5766 40.8216 42.6952C40.9204 42.5152 40.9853 42.4219 40.9853 42.4219C40.9853 42.4219 41.0789 42.2445 40.806 42.1526V42.146ZM40.9762 29.7011C30.7753 32.9332 21.2724 37.0522 14.5004 40.2606C13.3863 36.8625 12.6704 33.344 12.3674 29.7773C18.1763 29.751 26.5821 28.0535 35.7198 20.8141C37.9373 23.5772 39.653 26.6818 40.9762 29.7077V29.7011ZM39.0356 13.7337C39.0356 13.7337 37.9113 15.2342 35.7133 17.2812C33.0084 14.0254 30.3711 12.073 28.7931 11.0771C32.0414 11.1651 35.7081 11.8221 39.0356 13.7337ZM14.8734 15.7531C21.4141 6.75448 31.9517 16.9474 31.9517 16.9474C32.6569 17.5372 33.3303 18.1648 33.969 18.8276C29.5262 22.5379 22.2213 27.122 12.279 28.3662C12.0334 23.0674 12.9081 18.4544 14.8734 15.7531ZM4.55165 45.3623L4.33328 45.4123L4.52956 45.3045C3.96959 43.8638 3.5245 42.3801 3.19855 40.8676C1.09025 31.1372 5.88396 22.3422 10.8128 17.6648C9.94717 20.1611 9.27646 24.0016 9.49873 28.6198C7.7782 28.7187 6.05341 28.7152 4.33328 28.6093C4.33328 28.6093 6.2726 29.3661 9.56372 29.6604C9.87557 33.6685 10.7894 37.6053 12.2738 41.3354C8.07154 43.381 5.26785 44.9051 4.52956 45.2993C4.53606 45.3177 4.54385 45.3374 4.55165 45.3571C7.35924 44.7002 10.1993 43.9276 13.0121 43.0736C13.3587 43.847 13.7361 44.6248 14.1443 45.407C15.4922 48.0232 17.0779 50.507 18.8808 52.8264C17.1774 54.3959 15.5806 56.0797 14.1014 57.8664C9.81815 54.6891 6.50823 50.3552 4.55165 45.3623ZM15.9666 58.9792C17.2462 57.3384 18.6588 55.8082 20.1897 54.4044C24.765 59.6112 28.8178 61.1589 30.1371 61.5491C26.0362 61.829 21.3283 61.1405 15.9666 58.9792ZM33.0617 61.1734L32.5847 61.1143C28.1393 59.6532 24.4375 56.835 21.4661 53.2639C25.294 49.9701 30.995 46.198 38.3857 44.4269C38.0426 45.8616 37.8242 47.6734 38.2622 49.3144C39.1461 52.6214 40.4615 55.9284 45.8921 54.3242C42.7518 57.3527 38.5196 60.1315 33.0617 61.1734ZM64.9707 53.08C64.9707 53.08 64.3338 59.3235 58.3417 56.8442C58.3417 56.8442 56.522 56.1098 54.6165 53.9984C53.3855 52.6359 51.5502 51.845 49.8657 51.6334C51.4144 49.3107 52.5314 46.7222 53.162 43.9946C53.1113 44.1168 51.6269 47.6945 48.4164 51.594C48.0543 51.6208 47.6963 51.6887 47.3492 51.7963C45.3514 52.4401 42.0811 55.102 40.4459 50.3274C39.5101 47.5972 39.8233 45.4057 40.2627 44.0314C41.8277 43.7383 43.4098 43.5474 44.9992 43.4599C45.085 44.0064 45.1213 44.3073 45.1213 44.3073C45.1083 44.0209 45.0936 43.7371 45.0771 43.4559C47.488 43.332 49.905 43.4327 52.2976 43.7568C52.2976 43.7568 49.477 42.7543 45.0187 42.5901C44.9268 41.2885 44.7968 40.0333 44.6287 38.8246C44.6799 38.2767 44.5941 37.7246 44.3792 37.219C44.0506 35.2339 43.6009 33.2711 43.0325 31.3421C44.3571 30.722 45.4333 30.203 46.2132 29.822C47.253 31.3106 48.9766 33.7044 49.8851 34.6228C51.2473 36.0011 51.6113 36.2757 51.6113 36.2757C51.6113 36.2757 51.4293 36.6436 51.6113 36.8275C51.7933 37.0114 54.6996 40.8676 58.5159 41.6888C59.2952 41.8484 60.0983 41.8484 60.8776 41.6888C60.8776 41.6888 65.7883 49.5036 64.9707 53.08Z" fill="#014EC4"/>
<path d="M73.4998 0H72.0635V70H73.4998V0Z" fill="#014EC4"/>
<path d="M95.9322 19.3727H93.9149C93.7836 18.8383 93.7095 18.2912 93.6939 17.7408C92.9491 18.8182 91.5895 19.6013 89.3643 19.6013C85.162 19.6013 82.8535 16.3863 82.8535 12.2108C82.8535 7.80804 85.3375 4.49316 89.8452 4.49316C93.4548 4.49316 95.6268 6.52439 95.9998 9.06803H93.278C92.9127 7.86059 92.0094 6.68337 89.8036 6.68337C86.6841 6.68337 85.6741 9.27037 85.6741 12.0873C85.6741 14.782 86.775 17.3808 89.788 17.3808C92.6658 17.3808 93.2676 15.3943 93.2676 13.6836V13.5431H89.7763V11.2701H95.9322V19.3727Z" fill="#014EC4"/>
<path d="M97.4004 19.3728V3.86133H100.01V19.3728H97.4004Z" fill="#014EC4"/>
<path d="M111.269 13.8976C111.269 17.1429 109.374 19.6248 105.998 19.6248C102.738 19.6248 100.814 17.2099 100.814 13.9489C100.814 10.6327 102.764 8.21387 106.132 8.21387C109.246 8.21649 111.269 10.4816 111.269 13.8976ZM103.47 13.9187C103.47 16.1154 104.459 17.5265 106.07 17.5265C107.703 17.5265 108.615 16.1457 108.615 13.9331C108.615 11.5944 107.694 10.3108 106.028 10.3108C104.431 10.3134 103.471 11.555 103.471 13.9213L103.47 13.9187Z" fill="#014EC4"/>
<path d="M112.088 3.86133H114.699V9.76189C115.158 8.98408 116.083 8.21679 117.904 8.21679C120.764 8.21679 122.308 10.6001 122.308 13.7179C122.308 16.9054 120.701 19.6303 117.617 19.6303C115.971 19.6303 115.199 19.0877 114.669 18.2048C114.667 18.5971 114.633 18.9885 114.569 19.3754H112.069C112.09 18.1811 112.09 16.9724 112.09 15.7781L112.088 3.86133ZM119.649 13.7665C119.649 11.7695 118.848 10.3505 117.149 10.3505C115.247 10.3505 114.574 11.6171 114.574 13.9649C114.574 15.9476 115.172 17.4927 117.097 17.4927C118.745 17.5005 119.649 16.0303 119.649 13.7665Z" fill="#014EC4"/>
<path d="M131.727 16.7031C131.727 17.7266 131.811 19.093 131.873 19.3729H129.382C129.281 18.9867 129.228 18.5896 129.222 18.1904C128.832 18.8473 128.06 19.6356 126.089 19.6356C123.509 19.6356 122.416 17.9276 122.416 16.2459C122.416 13.7784 124.366 12.6446 127.537 12.6446H129.178V11.8891C129.178 11.0522 128.892 10.1508 127.294 10.1508C125.853 10.1508 125.567 10.8143 125.409 11.625H122.919C123.074 9.83421 124.171 8.20896 127.389 8.22472C130.193 8.23918 131.727 9.36122 131.727 11.9167V16.7031ZM129.178 14.2921H127.783C125.866 14.2921 125.036 14.8624 125.036 16.0764C125.036 16.9816 125.612 17.7003 126.772 17.7003C128.905 17.7003 129.178 16.2209 129.178 14.5983V14.2921Z" fill="#014EC4"/>
<path d="M133.238 19.3728V3.86133H135.846V19.3728H133.238Z" fill="#014EC4"/>
<path d="M83.6016 27.105H86.3234V32.9635H92.7522V27.105H95.474V41.7729H92.7522V35.2431H86.3234V41.7729H83.6016V27.105Z" fill="#014EC4"/>
<path d="M99.1204 36.8659C99.1204 38.5161 99.9471 39.9298 101.55 39.9298C102.948 39.9298 103.369 39.2966 103.674 38.591H106.288C105.898 39.9456 104.72 42.0281 101.478 42.0281C97.9792 42.0281 96.4922 39.3084 96.4922 36.4665C96.4922 33.107 98.1819 30.6172 101.589 30.6172C105.218 30.6172 106.437 33.3632 106.437 35.9515C106.444 36.2585 106.432 36.5657 106.401 36.8712L99.1204 36.8659ZM103.815 35.1894C103.795 33.7442 103.165 32.5499 101.577 32.5499C99.9887 32.5499 99.3271 33.6614 99.1841 35.1894H103.815Z" fill="#014EC4"/>
<path d="M115.859 39.1035C115.859 40.1257 115.942 41.4934 116.006 41.7732H113.513C113.412 41.3871 113.358 40.99 113.353 40.5908C112.963 41.2477 112.191 42.036 110.221 42.036C107.64 42.036 106.547 40.328 106.547 38.6462C106.547 36.1788 108.497 35.045 111.668 35.045H113.308V34.2895C113.308 33.4525 113.024 32.5512 111.426 32.5512C109.984 32.5512 109.698 33.2147 109.54 34.0254H107.05C107.206 32.2346 108.302 30.6093 111.52 30.6251C114.325 30.6396 115.859 31.7616 115.859 34.3171V39.1035ZM113.315 36.6925H111.92C110.004 36.6925 109.174 37.2628 109.174 38.4768C109.174 39.382 109.751 40.1007 110.91 40.1007C113.042 40.1007 113.315 38.6213 113.315 37V36.6925Z" fill="#014EC4"/>
<path d="M117.375 41.773V26.2603H119.984V41.773H117.375Z" fill="#014EC4"/>
<path d="M120.346 30.8707H122.077V27.8252H124.685V30.8655H126.894V32.8888H124.685V38.612C124.685 39.5173 124.937 39.914 125.855 39.914C126.111 39.918 126.368 39.9 126.622 39.8602V41.7154C126.074 41.9085 125.322 41.9216 124.747 41.9216C122.787 41.9216 122.076 40.8705 122.076 38.9957V32.8941H120.345L120.346 30.8707Z" fill="#014EC4"/>
<path d="M129.929 26.2603V32.2659C130.428 31.4776 131.339 30.617 133.112 30.617C135.028 30.617 136.731 31.7364 136.731 34.7912V41.773H134.131V35.1958C134.131 33.631 133.54 32.7862 132.182 32.7862C130.428 32.7862 129.924 34.0501 129.924 35.9303V41.773H127.32V26.2603H129.929Z" fill="#014EC4"/>
<path d="M96.7183 56.363C96.7183 60.4281 94.3578 63.9703 89.6993 63.9703C85.2423 63.9703 82.8584 60.6278 82.8584 56.4234C82.8584 52.1797 85.4229 48.8779 89.8904 48.8779C94.0745 48.8779 96.7183 51.9169 96.7183 56.363ZM85.6699 56.363C85.6699 59.331 87.036 61.7078 89.7968 61.7078C92.7864 61.7078 93.8951 59.1931 93.8951 56.4011C93.8951 53.4935 92.6343 51.1457 89.7656 51.1457C86.8969 51.1457 85.6738 53.4108 85.6738 56.3604L85.6699 56.363Z" fill="#014EC4"/>
<path d="M100.309 62.6644V67.9698H97.7096V55.4947C97.7096 54.6105 97.7096 53.721 97.6875 52.8565H100.217C100.272 53.3468 100.3 53.8398 100.303 54.3332C100.806 53.4332 101.813 52.6016 103.569 52.6016C106.015 52.6016 107.868 54.6709 107.868 58.0318C107.868 61.8932 105.78 64.0125 103.168 64.0125C101.578 64.0125 100.746 63.3779 100.309 62.6644ZM105.219 58.1329C105.219 56.0307 104.337 54.7497 102.775 54.7497C100.898 54.7497 100.203 55.9598 100.203 58.309C100.203 60.5557 100.815 61.8853 102.642 61.8853C104.354 61.8853 105.219 60.5097 105.219 58.1329Z" fill="#014EC4"/>
<path d="M108.709 48.2461H111.319V50.8239H108.71L108.709 48.2461ZM108.709 52.8564H111.319V63.7615H108.71L108.709 52.8564Z" fill="#014EC4"/>
<path d="M112.816 55.6024C112.816 54.6696 112.816 53.675 112.795 52.8565H115.323C115.382 53.3624 115.416 53.8711 115.424 54.3805C115.814 53.6106 116.687 52.6016 118.643 52.6016C120.76 52.6016 122.226 54.0035 122.226 56.7967V63.7602H119.618V57.1002C119.618 55.7338 119.135 54.7708 117.707 54.7708C116.181 54.7708 115.424 55.7706 115.424 57.7848V63.7576H112.816V55.6024Z" fill="#014EC4"/>
<path d="M123.69 48.2461H126.299V50.8239H123.69V48.2461ZM123.69 52.8564H126.299V63.7615H123.69V52.8564Z" fill="#014EC4"/>
<path d="M137.56 58.2853C137.56 61.5306 135.665 64.0125 132.288 64.0125C129.03 64.0125 127.104 61.5989 127.104 58.3366C127.104 55.0217 129.054 52.6016 132.423 52.6016C135.536 52.6016 137.56 54.8667 137.56 58.2853ZM129.761 58.3064C129.761 60.5031 130.752 61.9155 132.361 61.9155C133.995 61.9155 134.907 60.5334 134.907 58.3221C134.907 55.9821 133.987 54.6985 132.319 54.6985C130.718 54.6985 129.761 55.9414 129.761 58.3064Z" fill="#014EC4"/>
<path d="M138.393 55.6024C138.393 54.6696 138.393 53.675 138.372 52.8565H140.9C140.959 53.3624 140.992 53.8711 141 54.3805C141.39 53.6106 142.264 52.6016 144.219 52.6016C146.336 52.6016 147.803 54.0035 147.803 56.7967V63.7602H145.195V57.1002C145.195 55.7338 144.713 54.7708 143.284 54.7708C141.758 54.7708 141 55.7706 141 57.7848V63.7576H138.393V55.6024Z" fill="#014EC4"/>
</svg>
