<svg width="24" height="24" viewBox="0 0 24 24" fill="none" xmlns="http://www.w3.org/2000/svg">
<path d="M12 19C15.31 19 18 16.31 18 13V8C18 4.69 15.31 2 12 2C8.69 2 6 4.69 6 8V13C6 16.31 8.69 19 12 19Z" stroke="#565555" stroke-width="1.5" stroke-linecap="round" stroke-linejoin="round"/>
<path d="M3 10.9999V12.9999C3 15.3869 3.94821 17.6761 5.63604 19.3639C7.32387 21.0517 9.61305 21.9999 12 21.9999C14.3869 21.9999 16.6761 21.0517 18.364 19.3639C20.0518 17.6761 21 15.3869 21 12.9999V10.9999M9.11 7.47994C10.8857 6.82993 12.8343 6.82993 14.61 7.47994M10.03 10.4799C11.23 10.1499 12.5 10.1499 13.7 10.4799" stroke="#565555" stroke-width="1.5" stroke-linecap="round" stroke-linejoin="round"/>
</svg>
