<svg width="16" height="16" viewBox="0 0 16 16" fill="none" xmlns="http://www.w3.org/2000/svg">
<g clip-path="url(#clip0_16122_5127)">
<path d="M10.3933 8.17301C10.8424 8.1731 11.2871 8.08472 11.7021 7.91293C12.1171 7.74114 12.4941 7.4893 12.8118 7.17178C13.1294 6.85427 13.3814 6.4773 13.5534 6.0624C13.7253 5.6475 13.8139 5.2028 13.8139 4.75367C13.814 4.30455 13.7257 3.85981 13.5539 3.44485C13.3821 3.02988 13.1302 2.65281 12.8127 2.33517C12.4952 2.01754 12.1182 1.76555 11.7033 1.59359C11.2884 1.42164 10.8437 1.3331 10.3946 1.33301C9.48757 1.33301 8.61768 1.69333 7.9763 2.3347C7.33493 2.97608 6.97461 3.84597 6.97461 4.75301C6.97461 5.66005 7.33493 6.52994 7.9763 7.17131C8.61768 7.81269 9.48757 8.17301 10.3946 8.17301H10.3933Z" stroke="#465E97" stroke-miterlimit="10"/>
<path opacity="0.4" d="M4.24083 12.9602C4.78541 12.9602 5.30768 12.7438 5.69276 12.3588C6.07783 11.9737 6.29417 11.4514 6.29417 10.9068C6.29417 10.3623 6.07783 9.84 5.69276 9.45492C5.30768 9.06985 4.78541 8.85352 4.24083 8.85352C3.69626 8.85352 3.17398 9.06985 2.78891 9.45492C2.40383 9.84 2.1875 10.3623 2.1875 10.9068C2.1875 11.4514 2.40383 11.9737 2.78891 12.3588C3.17398 12.7438 3.69626 12.9602 4.24083 12.9602ZM11.0808 14.6655C11.5335 14.6655 11.9676 14.4857 12.2876 14.1656C12.6077 13.8456 12.7875 13.4115 12.7875 12.9588C12.7875 12.5062 12.6077 12.0721 12.2876 11.7521C11.9676 11.432 11.5335 11.2522 11.0808 11.2522C10.6282 11.2522 10.1941 11.432 9.87404 11.7521C9.55398 12.0721 9.37417 12.5062 9.37417 12.9588C9.37417 13.4115 9.55398 13.8456 9.87404 14.1656C10.1941 14.4857 10.6282 14.6655 11.0808 14.6655Z" stroke="#465E97" stroke-miterlimit="10"/>
</g>
<defs>
<clipPath id="clip0_16122_5127">
<rect width="16" height="16" fill="white"/>
</clipPath>
</defs>
</svg>
