<svg width="12" height="12" viewBox="0 0 12 12" fill="none" xmlns="http://www.w3.org/2000/svg">
<path d="M11.9896 0.895123C12.0271 0.647603 11.9471 0.404084 11.7706 0.22807C11.594 0.0510563 11.35 -0.0274499 11.103 0.00855297C10.2589 0.135063 9.12684 0.411085 8.5293 1.00913C8.35428 1.18415 8.23377 1.41466 8.15227 1.66818C7.96425 1.28265 7.73673 0.958628 7.56672 0.760112C7.2847 0.429086 6.71715 0.429086 6.43463 0.760112C6.12461 1.12214 5.62257 1.9022 5.51956 2.71127C5.22504 2.43024 4.702 2.44674 4.43447 2.76027C4.12445 3.1223 3.62241 3.90236 3.5194 4.71142C3.22488 4.4304 2.70184 4.4469 2.43432 4.76043C2.08779 5.16596 1.50024 6.09353 1.50024 7.0006C1.50024 8.02568 2.10379 8.87825 2.40631 9.24128L0.0731308 11.5735C-0.0243769 11.671 -0.0243769 11.8295 0.0731308 11.927C0.122135 11.976 0.18614 12 0.250145 12C0.31415 12 0.378155 11.9755 0.427159 11.927L2.76034 9.59381C3.12337 9.89633 3.97594 10.4999 5.00102 10.4999C5.90759 10.4999 6.83616 9.91283 7.2412 9.56581C7.40621 9.4243 7.50122 9.21778 7.50122 8.99976C7.50122 8.80475 7.42521 8.61873 7.2907 8.48022C8.09976 8.37671 8.87932 7.87517 9.24185 7.56515C9.40687 7.42364 9.50187 7.21712 9.50187 6.9991C9.50187 6.80409 9.42587 6.61807 9.29136 6.47956C10.1004 6.37605 10.88 5.87452 11.2425 5.56449C11.4075 5.42298 11.5025 5.21646 11.5025 4.99845C11.5025 4.78043 11.408 4.57391 11.2425 4.4324C11.0435 4.26239 10.719 4.03437 10.3324 3.84586C10.5845 3.76435 10.815 3.64334 10.9905 3.46733C11.5885 2.86928 11.8646 1.73719 11.9906 0.893123L11.9896 0.895123ZM6.81466 1.08464C6.87817 1.01063 6.95817 0.999631 7.00068 0.999631C7.04318 0.999631 7.12319 1.01063 7.18669 1.08464C7.56022 1.52067 7.96025 2.26173 7.99776 2.90378C7.99826 2.94728 7.99926 2.99029 8.00076 3.03179C7.99725 3.53433 7.91675 3.64184 7.77174 3.83385C7.73723 3.87986 6.49814 5.14896 6.49814 5.14896C6.49964 5.10195 6.50064 5.05245 6.50064 4.99995C6.50064 4.4319 6.27062 3.85636 6.0131 3.40532C6.0131 3.39382 6.0131 3.38232 6.0121 3.37032C6.0036 3.29381 6.0006 3.07829 6.0006 2.99929C6.0006 2.33674 6.42263 1.54217 6.81466 1.08414V1.08464ZM4.8145 3.0848C4.87801 3.01079 4.95802 2.99979 5.00052 2.99979C5.04302 2.99979 5.12303 3.01079 5.18653 3.0848C5.57856 3.54283 6.0006 4.33689 6.0006 4.99995C6.0006 5.53049 5.91959 5.638 5.77158 5.83401C5.73708 5.88002 4.49798 7.14912 4.49798 7.14912C4.49948 7.10211 4.50048 7.05261 4.50048 7.0001C4.50048 6.43206 4.26996 5.85551 4.01244 5.40498C4.01394 5.38948 4.01394 5.37398 4.01244 5.35797C4.00394 5.28147 4.00094 5.07845 4.00094 4.99995C4.00094 4.33739 4.42247 3.54283 4.8145 3.0848ZM2.00028 7.0001C2.00028 6.33755 2.42232 5.54299 2.81435 5.08495C2.87785 5.01095 2.95786 4.99995 3.00036 4.99995C3.04286 4.99995 3.12287 5.01095 3.18638 5.08495C3.57841 5.54299 4.00044 6.33705 4.00044 7.0001C4.00044 7.53065 3.91943 7.63815 3.77142 7.83417C3.73692 7.87967 2.76284 8.88425 2.76284 8.88425C2.49632 8.55423 2.00028 7.82867 2.00028 6.9996V7.0001ZM6.91567 9.18628C6.45763 9.57831 5.66257 10.0003 5.00052 10.0003C4.17145 10.0003 3.4459 9.5048 3.11637 9.23828C3.11637 9.23828 4.11995 8.2642 4.16645 8.2297C4.36247 8.08169 4.46998 8.00068 5.00102 8.00068C5.66307 8.00068 6.45813 8.42272 6.91617 8.81475C6.97067 8.86175 7.00118 8.92776 7.00118 9.00076C7.00118 9.07377 6.97067 9.13977 6.91617 9.18678L6.91567 9.18628ZM8.91583 7.18612C8.45779 7.57815 7.66273 8.00018 7.00068 8.00018C7.00068 8.00018 6.68065 8.00668 6.62115 8.00268C6.16661 7.73916 5.57906 7.50014 5.00052 7.50014C4.94801 7.50014 4.89851 7.50114 4.85151 7.50264C4.85151 7.50264 6.11961 6.26405 6.16611 6.22904C6.36213 6.08103 6.46963 6.00002 7.00068 6.00002C7.66273 6.00002 8.45779 6.42206 8.91583 6.81409C8.97033 6.86109 9.00083 6.9271 9.00083 7.0001C9.00083 7.07311 8.97033 7.13911 8.91583 7.18612ZM11.001 4.99995C11.001 5.07295 10.9705 5.13896 10.916 5.18596C10.4579 5.57799 9.66289 6.00002 9.00083 6.00002C8.92783 6.00002 8.69681 5.99652 8.6003 5.99002C8.14877 5.7315 7.57072 5.49999 7.00068 5.49999C6.94817 5.49999 6.89867 5.50099 6.85166 5.50249C6.85166 5.50249 8.11876 4.26189 8.16627 4.22889C8.50079 3.99987 9.05334 4.00187 9.09034 4.00237C9.73339 4.03737 10.4785 4.4389 10.916 4.81343C10.9705 4.86044 11.001 4.92644 11.001 4.99945V4.99995ZM8.5328 3.46583C8.47179 2.89628 8.45179 1.79319 8.88233 1.36266C9.27336 0.971129 10.0884 0.666105 11.177 0.503092C11.2655 0.489591 11.354 0.518093 11.4165 0.581098C11.4795 0.644103 11.508 0.73161 11.4945 0.821117C11.4005 1.45117 11.1635 2.58726 10.635 3.1158C10.1989 3.55133 9.10184 3.52933 8.5328 3.46583Z" fill="#656A74"/>
</svg>
