<svg width="16" height="16" viewBox="0 0 16 16" fill="none" xmlns="http://www.w3.org/2000/svg">
<path d="M4.66732 4H11.334C11.7473 4 12.114 4.01333 12.4407 4.06C14.194 4.25333 14.6673 5.08 14.6673 7.33333V8.66667C14.6673 10.92 14.194 11.7467 12.4407 11.94C12.114 11.9867 11.7473 12 11.334 12H4.66732C4.25398 12 3.88732 11.9867 3.56065 11.94C1.80732 11.7467 1.33398 10.92 1.33398 8.66667V7.33333C1.33398 5.08 1.80732 4.25333 3.56065 4.06C3.88732 4.01333 4.25398 4 4.66732 4Z" stroke="#465E97" stroke-linecap="round" stroke-linejoin="round"/>
<path opacity="0.4" d="M11.3327 12.0004C11.7461 12.0004 12.1127 11.9871 12.4394 11.9404C12.4461 12.0338 12.4461 12.1204 12.4461 12.2204V12.4471C12.4461 14.2204 11.9994 14.6671 10.2194 14.6671H5.7794C3.9994 14.6671 3.55273 14.2204 3.55273 12.4471V12.2204C3.55273 12.1204 3.55273 12.0338 3.5594 11.9404C3.88607 11.9871 4.25273 12.0004 4.66607 12.0004H11.3327Z" stroke="#465E97" stroke-linecap="round" stroke-linejoin="round"/>
<path opacity="0.4" d="M5.7794 1.33301H10.2194C11.9994 1.33301 12.4461 1.77967 12.4461 3.55301V3.77967C12.4461 3.87967 12.4461 3.96634 12.4394 4.05967C12.1127 4.01301 11.7461 3.99967 11.3327 3.99967H4.66607C4.25273 3.99967 3.88607 4.01301 3.5594 4.05967C3.55273 3.96634 3.55273 3.87967 3.55273 3.77967V3.55301C3.55273 1.77967 3.9994 1.33301 5.7794 1.33301Z" stroke="#465E97" stroke-linecap="round" stroke-linejoin="round"/>
</svg>
