<svg width="16" height="16" viewBox="0 0 16 16" fill="none" xmlns="http://www.w3.org/2000/svg">
<g clip-path="url(#clip0_16415_14600)">
<mask id="mask0_16415_14600" style="mask-type:luminance" maskUnits="userSpaceOnUse" x="0" y="0" width="16" height="16">
<path d="M16 0H0V16H16V0Z" fill="white"/>
</mask>
<g mask="url(#mask0_16415_14600)">
<path d="M13.3595 4.54679L9.51951 1.86012C8.47284 1.12679 6.86618 1.16679 5.85951 1.94679L2.51951 4.55345C1.85284 5.07345 1.32617 6.14012 1.32617 6.98013V11.5801C1.32617 13.2801 2.70617 14.6668 4.40617 14.6668H11.5928C13.2928 14.6668 14.6728 13.2868 14.6728 11.5868V7.06679C14.6728 6.16679 14.0928 5.06012 13.3595 4.54679ZM8.49951 12.0001C8.49951 12.2735 8.27284 12.5001 7.99951 12.5001C7.72618 12.5001 7.49951 12.2735 7.49951 12.0001V10.0001C7.49951 9.72679 7.72618 9.50013 7.99951 9.50013C8.27284 9.50013 8.49951 9.72679 8.49951 10.0001V12.0001Z" fill="#465E97"/>
</g>
</g>
<defs>
<clipPath id="clip0_16415_14600">
<rect width="16" height="16" fill="white"/>
</clipPath>
</defs>
</svg>
