<svg width="16" height="16" viewBox="0 0 16 16" fill="none" xmlns="http://www.w3.org/2000/svg">
<g clip-path="url(#clip0_16122_5111)">
<mask id="mask0_16122_5111" style="mask-type:luminance" maskUnits="userSpaceOnUse" x="0" y="0" width="16" height="16">
<path d="M16 0H0V16H16V0Z" fill="white"/>
</mask>
<g mask="url(#mask0_16122_5111)">
<path d="M15.2945 13.0727L14.5345 13.246C13.9878 13.3727 13.5611 13.7993 13.4345 14.346L13.2545 15.106C13.2345 15.186 13.1211 15.186 13.1011 15.106L12.9278 14.346C12.8011 13.7993 12.3745 13.3727 11.8278 13.246L11.0678 13.066C10.9878 13.046 10.9878 12.9327 11.0678 12.9127L11.8278 12.7393C12.3745 12.6127 12.8011 12.186 12.9278 11.6393L13.1078 10.8793C13.1278 10.7993 13.2411 10.7993 13.2611 10.8793L13.4345 11.6393C13.5611 12.186 13.9878 12.6127 14.5345 12.7393L15.2945 12.9193C15.3745 12.9393 15.3745 13.0527 15.2945 13.0727Z" stroke="#465E97" stroke-miterlimit="10"/>
<path opacity="0.4" d="M10.9609 1.33301H12.4409C13.6676 1.33301 14.6609 2.32634 14.6609 3.55301V5.03301" stroke="#465E97" stroke-linecap="round" stroke-linejoin="round"/>
<path opacity="0.4" d="M1.33398 10.96V12.44C1.33398 13.6666 2.32732 14.66 3.55398 14.66H5.03398" stroke="#465E97" stroke-linecap="round" stroke-linejoin="round"/>
<path opacity="0.4" d="M1.33398 5.03984V3.55984C1.33398 2.33318 2.32732 1.33984 3.55398 1.33984H5.03398" stroke="#465E97" stroke-linecap="round" stroke-linejoin="round"/>
<path d="M10.7799 7.44654C10.7799 7.13988 10.5332 6.89321 10.2265 6.89321H9.11321V5.7799C9.11321 5.47323 8.86654 5.22656 8.55988 5.22656H7.44654C7.13988 5.22656 6.89321 5.47323 6.89321 5.7799V6.89321H5.7799C5.47323 6.89321 5.22656 7.13988 5.22656 7.44654V8.55988C5.22656 8.86654 5.47323 9.11321 5.7799 9.11321H6.89321V10.2265C6.89321 10.5332 7.13988 10.7799 7.44654 10.7799H8.55988C8.86654 10.7799 9.11321 10.5332 9.11321 10.2265V9.11321H10.2265C10.5332 9.11321 10.7799 8.86654 10.7799 8.55988V7.44654Z" stroke="#465E97" stroke-linecap="round" stroke-linejoin="round"/>
</g>
</g>
<defs>
<clipPath id="clip0_16122_5111">
<rect width="16" height="16" fill="white"/>
</clipPath>
</defs>
</svg>
