<svg width="36" height="36" viewBox="0 0 36 36" fill="none" xmlns="http://www.w3.org/2000/svg">
<rect width="36" height="36" rx="18" fill="white"/>
<rect x="0.5" y="0.5" width="35" height="35" rx="17.5" stroke="#EBBC0F" stroke-opacity="0.41"/>
<g clip-path="url(#clip0_16360_11139)">
<path d="M27.4503 19.1208L21.7961 25.295C20.2178 27.0183 17.9878 28 15.6511 28H11.3353C9.49445 28 8.00195 26.5075 8.00195 24.6667V21.3333C8.00195 19.4925 9.49445 18 11.3353 18H17.8245C18.9695 18 19.8745 19.05 19.6278 20.2375C19.467 21.0092 18.7911 21.5692 18.0111 21.6808L14.5428 22.1667C14.087 22.2317 13.7703 22.6542 13.8361 23.1092C13.9011 23.565 14.3236 23.8808 14.7786 23.8158L18.322 23.3192C20.0403 23.0742 21.3361 21.58 21.3361 19.8442C21.3361 19.6617 21.3095 19.4867 21.282 19.3125L24.2328 16.1983C24.612 15.7817 25.147 15.5292 25.7278 15.5025C26.3045 15.4742 26.8636 15.6767 27.2928 16.0675C28.1695 16.8658 28.2411 18.235 27.4503 19.1208ZM12.3745 15.5C12.9678 15.5 13.492 15.2217 13.8328 14.7908V15.5C13.8328 15.9608 14.2053 16.3333 14.6661 16.3333C15.127 16.3333 15.4995 15.9608 15.4995 15.5V13.8333H18.4161C19.567 13.8333 20.4995 12.9008 20.4995 11.75C20.4995 10.7542 19.7995 9.92417 18.8661 9.71833C18.4886 9.18417 17.8695 8.83333 17.1661 8.83333C16.9536 8.83333 16.752 8.87417 16.5586 8.93417C16.257 8.38083 15.677 8 15.0028 8C14.3636 8 13.8078 8.34 13.4936 8.84667C12.2903 8.91583 11.3328 9.90417 11.3328 11.125C11.3328 11.4267 11.3945 11.7125 11.5003 11.9758C10.9078 12.2908 10.4995 12.9075 10.4995 13.625C10.4995 14.6608 11.3386 15.5 12.3745 15.5Z" fill="#EBBC0F"/>
</g>
<defs>
<clipPath id="clip0_16360_11139">
<rect width="20" height="20" fill="white" transform="translate(8 8)"/>
</clipPath>
</defs>
</svg>
