<svg width="36" height="36" viewBox="0 0 36 36" fill="none" xmlns="http://www.w3.org/2000/svg">
<rect width="36" height="36" rx="18" fill="white"/>
<rect x="0.5" y="0.5" width="35" height="35" rx="17.5" stroke="#2AA39F" stroke-opacity="0.41"/>
<g clip-path="url(#clip0_16360_11136)">
<path d="M28 20.4998C28 24.7306 22.1667 27.9998 20.5 27.9998H15.5C13.8333 27.9998 8 24.7306 8 20.4998C8.00702 19.8349 8.27586 19.1996 8.74822 18.7316C9.22058 18.2636 9.85839 18.0007 10.5233 17.9998H25.4767C26.1415 18.0011 26.779 18.2642 27.2513 18.7321C27.7236 19.2 27.9925 19.835 28 20.4998ZM24.4283 10.5165C24.1383 10.5565 23.8225 10.6131 23.4992 10.6773C23.745 9.94732 24.3325 8.09398 22.9992 7.99982C22.7782 7.99982 22.5662 8.08761 22.4099 8.24389C22.2536 8.40017 22.1658 8.61213 22.1658 8.83315C22.1756 9.30826 22.0831 9.77992 21.8946 10.2161C21.7061 10.6524 21.426 11.043 21.0733 11.3615C20.3433 11.603 19.6683 11.9868 19.0875 12.4906C18.5945 12.9837 18.2501 13.6055 18.0937 14.285C17.9374 14.9644 17.9754 15.6742 18.2033 16.3331H19.3217L21.5775 14.0773C21.7347 13.9255 21.9452 13.8415 22.1637 13.8434C22.3822 13.8453 22.5912 13.933 22.7457 14.0875C22.9002 14.242 22.9878 14.451 22.9897 14.6695C22.9916 14.888 22.9076 15.0985 22.7558 15.2556L21.6783 16.3331H25.2208C25.7381 15.0711 26.1061 13.753 26.3175 12.4056C26.3536 12.1491 26.3296 11.8877 26.2474 11.6421C26.1652 11.3964 26.0271 11.1732 25.8439 10.99C25.6608 10.8069 25.4376 10.6688 25.1919 10.5866C24.9462 10.5044 24.6848 10.4804 24.4283 10.5165ZM16.3333 16.3331C16.2217 11.9356 9.7775 11.939 9.66667 16.3331H16.3333ZM16.75 13.0565C17.0587 12.3267 17.5199 11.6714 18.1027 11.1345C18.6856 10.5977 19.3765 10.1918 20.1292 9.94398C20.3426 9.68228 20.4685 9.3602 20.4892 9.02315C20.1194 8.63741 19.6626 8.34581 19.1571 8.1727C18.6516 7.9996 18.1119 7.95004 17.5833 8.02815C16.9781 8.07673 16.3995 8.29831 15.9167 8.66648C15.371 8.25592 14.7109 8.02579 14.0283 8.00815C13.1616 7.9244 12.2969 8.18715 11.6233 8.73898C11.1756 9.13177 10.8425 9.63841 10.6594 10.2052C10.4763 10.7719 10.45 11.3777 10.5833 11.9581C11.5826 11.4114 12.7386 11.2223 13.86 11.422C14.9814 11.6217 16.0009 12.1984 16.75 13.0565Z" fill="#2AA39F"/>
</g>
<defs>
<clipPath id="clip0_16360_11136">
<rect width="20" height="20" fill="white" transform="translate(8 8)"/>
</clipPath>
</defs>
</svg>
