<svg width="36" height="36" viewBox="0 0 36 36" fill="none" xmlns="http://www.w3.org/2000/svg">
<rect width="36" height="36" rx="18" fill="white"/>
<rect x="0.5" y="0.5" width="35" height="35" rx="17.5" stroke="#6C63FF" stroke-opacity="0.41"/>
<path d="M17.1666 26.3336C12.7166 26.3336 8.85828 23.0336 8.02578 18.8278C7.83911 17.8828 8.69578 17.0261 9.64078 17.2128C13.8466 18.0453 17.1666 21.8836 17.1666 26.3336ZM22.1624 17.2111C22.0224 15.0095 20.7958 12.5795 19.2091 10.6011C18.5883 9.82697 17.4124 9.82697 16.7908 10.6011C15.2041 12.5795 13.9766 15.0095 13.8374 17.2111C15.6816 18.3953 17.1449 20.1236 17.9999 22.167C18.8549 20.1236 20.3183 18.3953 22.1624 17.2111ZM26.3591 17.2136C22.1533 18.0461 18.8333 21.8836 18.8333 26.3336C23.2833 26.3336 27.1416 23.0336 27.9741 18.8278C28.1608 17.8828 27.3041 17.027 26.3591 17.2136Z" fill="#6C63FF"/>
</svg>
